<svg data-v-423bf9ae="" xmlns="http://www.w3.org/2000/svg" viewBox="0 0 678 90" class="iconLeft"><!----><defs data-v-423bf9ae=""><linearGradient data-v-423bf9ae="" gradientTransform="rotate(25)" id="93ff4b2f-4531-44b6-8c05-4baa30a0ceb5" x1="0%" y1="0%" x2="100%" y2="0%"><stop data-v-423bf9ae="" offset="0%" style="stop-color: rgb(255, 75, 3); stop-opacity: 1;"></stop><stop data-v-423bf9ae="" offset="100%" style="stop-color: rgb(252, 255, 101); stop-opacity: 1;"></stop></linearGradient></defs><!----><g data-v-423bf9ae="" id="3d0d7dae-abb5-44ac-8a8b-7feede4ab3f6" fill="#ffffff" transform="matrix(5.830903811703725,0,0,5.830903811703725,114.52090216551767,12.551021672677557)"><path d="M4.52 10.50L6.80 2.20L9.09 10.50L10.88 10.50L13.44 0.42L11.75 0.42L9.95 8.60L7.77 0.42L5.82 0.42L3.72 8.60L1.86 0.42L0.17 0.42L2.72 10.50ZM20.12 7.28C20.13 7.21 20.13 6.85 20.13 6.66C20.13 4.44 18.83 3.01 16.76 3.01C14.80 3.01 13.33 4.35 13.33 6.86C13.33 9.37 14.80 10.71 16.76 10.71C18.41 10.71 19.57 9.93 20.03 8.37L18.56 8.06C18.35 8.93 17.65 9.42 16.86 9.42C15.85 9.42 14.98 8.76 14.88 7.28ZM16.74 4.31C17.79 4.31 18.47 5.05 18.52 6.13L14.92 6.13C15.11 4.89 15.93 4.31 16.74 4.31ZM25.83 9.66C25.86 9.97 25.91 10.30 26.12 10.50L27.69 10.50C27.44 10.23 27.30 9.76 27.30 9.02L27.30 5.92C27.30 3.95 26.28 3.01 24.36 3.01C22.97 3.01 21.63 3.53 21.27 5.21L22.67 5.59C22.88 4.79 23.37 4.27 24.25 4.27C25.19 4.27 25.75 4.75 25.75 5.64L25.75 5.88C25.38 6.05 24.67 6.17 23.90 6.24C22.23 6.43 21.04 7.04 21.04 8.61C21.04 10.04 22.18 10.71 23.51 10.71C24.37 10.71 25.14 10.43 25.83 9.66ZM25.75 8.41C25.41 8.90 24.64 9.51 23.80 9.51C23.16 9.51 22.64 9.24 22.64 8.53C22.62 7.67 23.37 7.48 24.09 7.35C24.79 7.24 25.44 7.08 25.75 6.96ZM32.35 9.20C32.13 9.27 31.92 9.28 31.78 9.28C31.12 9.28 31.12 8.83 31.12 8.20L31.12 4.44L32.41 4.44L32.41 3.22L31.12 3.22L31.12 0.85L29.57 1.46L29.57 3.22L28.53 3.22L28.53 4.44L29.57 4.44L29.57 8.37C29.57 9.80 29.89 10.64 31.42 10.64C31.68 10.64 32.21 10.57 32.49 10.47ZM35.46 10.50L35.46 6.54C35.46 5.10 36.19 4.33 37.18 4.33C38.18 4.33 38.56 4.98 38.56 6.09L38.56 10.50L40.11 10.50L40.11 6.03C40.11 4.30 39.56 3.01 37.55 3.01C36.60 3.01 35.91 3.39 35.46 4.19L35.46 0.42L33.91 0.42L33.91 10.50ZM48.19 7.28C48.20 7.21 48.20 6.85 48.20 6.66C48.20 4.44 46.90 3.01 44.83 3.01C42.87 3.01 41.40 4.35 41.40 6.86C41.40 9.37 42.87 10.71 44.83 10.71C46.48 10.71 47.64 9.93 48.10 8.37L46.63 8.06C46.42 8.93 45.72 9.42 44.93 9.42C43.92 9.42 43.05 8.76 42.95 7.28ZM44.81 4.31C45.86 4.31 46.54 5.05 46.59 6.13L42.99 6.13C43.18 4.89 44.00 4.31 44.81 4.31ZM51.06 10.50L51.06 6.82C51.06 5.40 51.66 4.47 52.86 4.47C53.30 4.47 53.58 4.59 53.86 4.77L54.21 3.39C53.87 3.12 53.48 3.01 52.92 3.01C51.97 3.01 51.39 3.50 50.93 4.48L50.93 3.22L49.50 3.22L49.50 10.50ZM59.26 10.50L60.91 10.50L60.91 6.64L61.98 6.64C63.38 6.64 64.06 7.39 64.79 8.81L65.66 10.50L67.62 10.50L66.37 8.16C65.90 7.28 65.20 6.36 64.18 6.12C65.80 5.87 66.70 4.94 66.70 3.40C66.70 1.18 64.92 0.42 62.85 0.42L59.26 0.42ZM60.91 1.90L62.64 1.90C63.97 1.90 65.02 2.24 65.02 3.54C65.02 4.66 64.20 5.21 62.66 5.21L60.91 5.21ZM73.05 9.66C73.08 9.97 73.14 10.30 73.35 10.50L74.91 10.50C74.66 10.23 74.52 9.76 74.52 9.02L74.52 5.92C74.52 3.95 73.50 3.01 71.58 3.01C70.20 3.01 68.85 3.53 68.49 5.21L69.89 5.59C70.10 4.79 70.59 4.27 71.47 4.27C72.41 4.27 72.97 4.75 72.97 5.64L72.97 5.88C72.60 6.05 71.89 6.17 71.12 6.24C69.45 6.43 68.26 7.04 68.26 8.61C68.26 10.04 69.40 10.71 70.73 10.71C71.60 10.71 72.37 10.43 73.05 9.66ZM72.97 8.41C72.63 8.90 71.86 9.51 71.02 9.51C70.38 9.51 69.86 9.24 69.86 8.53C69.85 7.67 70.59 7.48 71.32 7.35C72.02 7.24 72.66 7.08 72.97 6.96ZM80.91 0.42L80.91 3.95C80.49 3.33 79.84 3.01 79.07 3.01C77.15 3.01 75.91 4.49 75.91 6.86C75.91 9.23 77.13 10.71 79.04 10.71C79.95 10.71 80.63 10.26 81.05 9.56L81.05 10.50L82.46 10.50L82.46 0.42ZM81.06 6.86C81.06 8.57 80.15 9.42 79.24 9.42C78.23 9.42 77.46 8.57 77.46 6.86C77.46 5.17 78.22 4.31 79.24 4.31C80.28 4.31 81.06 5.17 81.06 6.86ZM88.56 9.66C88.59 9.97 88.65 10.30 88.86 10.50L90.43 10.50C90.17 10.23 90.03 9.76 90.03 9.02L90.03 5.92C90.03 3.95 89.01 3.01 87.09 3.01C85.71 3.01 84.36 3.53 84.00 5.21L85.40 5.59C85.61 4.79 86.10 4.27 86.98 4.27C87.92 4.27 88.48 4.75 88.48 5.64L88.48 5.88C88.12 6.05 87.40 6.17 86.63 6.24C84.97 6.43 83.78 7.04 83.78 8.61C83.78 10.04 84.91 10.71 86.24 10.71C87.11 10.71 87.88 10.43 88.56 9.66ZM88.48 8.41C88.14 8.90 87.37 9.51 86.53 9.51C85.89 9.51 85.37 9.24 85.37 8.53C85.36 7.67 86.10 7.48 86.83 7.35C87.53 7.24 88.17 7.08 88.48 6.96ZM93.39 10.50L93.39 6.82C93.39 5.40 94.00 4.47 95.20 4.47C95.63 4.47 95.91 4.59 96.19 4.77L96.54 3.39C96.21 3.12 95.82 3.01 95.26 3.01C94.30 3.01 93.73 3.50 93.27 4.48L93.27 3.22L91.84 3.22L91.84 10.50Z"></path></g><!----><g data-v-423bf9ae="" id="662debba-df79-419e-9fdd-95bc10499595" transform="matrix(1.9885107324808393,0,0,1.9885107324808393,-1.7287660328762229,-4.342770322853511)" stroke="none" fill="#ffffff"><path d="M3.459 31.03h28.753c6.52-6.523-.793-10.971-3.457-10.971l-1.584 3.063s.299-10.178-9.784-10.178c-5.634 0-8.89 6.422-8.89 6.422l4.051 3.361C8.297 18.477.984 19.664.984 26.481c.001 0 .203 4.549 2.475 4.549zM45.949 36.366c-.494.887-1.682 1.184-2.57.689L38.24 34.09c-.891-.592-1.186-1.68-.695-2.568a1.762 1.762 0 0 1 2.574-.693l5.137 2.965a1.76 1.76 0 0 1 .693 2.572z"></path><path d="M45.949 36.366c-.494.887-1.682 1.184-2.57.689L38.24 34.09c-.891-.592-1.186-1.68-.695-2.568a1.762 1.762 0 0 1 2.574-.693l5.137 2.965a1.76 1.76 0 0 1 .693 2.572zM37.746 44.663c-.986.496-2.074.199-2.57-.689l-3.064-5.238c-.492-.889-.197-1.977.695-2.568.887-.492 2.072-.199 2.57.691l3.061 5.236c.494.888.197 1.978-.692 2.568z"></path><path d="M37.746 44.663c-.986.496-2.074.199-2.57-.689l-3.064-5.238c-.492-.889-.197-1.977.695-2.568.887-.492 2.072-.199 2.57.691l3.061 5.236c.494.888.197 1.978-.692 2.568zM26.381 47.63c-1.084 0-1.875-.793-1.875-1.877v-5.93c0-1.088.791-1.877 1.875-1.877 1.09 0 1.879.789 1.879 1.877v5.93c0 1.084-.789 1.877-1.879 1.877z"></path><path d="M26.381 47.63c-1.084 0-1.875-.793-1.875-1.877v-5.93c0-1.088.791-1.877 1.875-1.877 1.09 0 1.879.789 1.879 1.877v5.93c0 1.084-.789 1.877-1.879 1.877zM26.381 2.37c1.09 0 1.879.889 1.879 1.879v6.027a1.877 1.877 0 1 1-3.754 0V4.249a1.875 1.875 0 0 1 1.875-1.879z"></path><path d="M26.381 2.37c1.09 0 1.879.889 1.879 1.879v6.027a1.877 1.877 0 1 1-3.754 0V4.249a1.875 1.875 0 0 1 1.875-1.879zM37.746 5.435c.889.494 1.186 1.682.691 2.572l-3.061 5.137c-.498.889-1.684 1.186-2.57.691-.893-.494-1.188-1.682-.695-2.572l3.064-5.137c.497-.889 1.585-1.186 2.571-.691z"></path><path d="M37.746 5.435c.889.494 1.186 1.682.691 2.572l-3.061 5.137c-.498.889-1.684 1.186-2.57.691-.893-.494-1.188-1.682-.695-2.572l3.064-5.137c.497-.889 1.585-1.186 2.571-.691zM45.949 13.735c.592.891.293 1.977-.693 2.568l-5.137 2.965c-.891.494-2.076.197-2.574-.691-.49-.889-.195-2.076.695-2.568l5.139-2.967c.889-.594 2.076-.197 2.57.693z"></path><path d="M45.949 13.735c.592.891.293 1.977-.693 2.568l-5.137 2.965c-.891.494-2.076.197-2.574-.691-.49-.889-.195-2.076.695-2.568l5.139-2.967c.889-.594 2.076-.197 2.57.693zM49.016 24.999c0 1.088-.795 1.879-1.879 1.879h-5.932c-1.086 0-1.875-.791-1.875-1.879 0-.986.789-1.877 1.875-1.877h5.932a1.88 1.88 0 0 1 1.879 1.877z"></path><path d="M49.016 24.999c0 1.088-.795 1.879-1.879 1.879h-5.932c-1.086 0-1.875-.791-1.875-1.879 0-.986.789-1.877 1.875-1.877h5.932a1.88 1.88 0 0 1 1.879 1.877zM45.949 36.366c-.494.887-1.682 1.184-2.57.689L38.24 34.09c-.891-.592-1.186-1.68-.695-2.568a1.762 1.762 0 0 1 2.574-.693l5.137 2.965a1.76 1.76 0 0 1 .693 2.572zM37.746 44.663c-.986.496-2.074.199-2.57-.689l-3.064-5.238c-.492-.889-.197-1.977.695-2.568.887-.492 2.072-.199 2.57.691l3.061 5.236c.494.888.197 1.978-.692 2.568zM26.381 47.63c-1.084 0-1.875-.793-1.875-1.877v-5.93c0-1.088.791-1.877 1.875-1.877 1.09 0 1.879.789 1.879 1.877v5.93c0 1.084-.789 1.877-1.879 1.877zM26.381 2.37c1.09 0 1.879.889 1.879 1.879v6.027a1.877 1.877 0 1 1-3.754 0V4.249a1.875 1.875 0 0 1 1.875-1.879zM37.746 5.435c.889.494 1.186 1.682.691 2.572l-3.061 5.137c-.498.889-1.684 1.186-2.57.691-.893-.494-1.188-1.682-.695-2.572l3.064-5.137c.497-.889 1.585-1.186 2.571-.691zM45.949 13.735c.592.891.293 1.977-.693 2.568l-5.137 2.965c-.891.494-2.076.197-2.574-.691-.49-.889-.195-2.076.695-2.568l5.139-2.967c.889-.594 2.076-.197 2.57.693z"></path><path d="M49.016 24.999c0 1.088-.795 1.879-1.879 1.879h-5.932c-1.086 0-1.875-.791-1.875-1.879 0-.986.789-1.877 1.875-1.877h5.932a1.88 1.88 0 0 1 1.879 1.877z"></path></g><!----></svg>